# xmcd
#
# Track frame offsets:
#	150
#	24383
#	44519
#	60742
#	84997
#	103887
#	124421
#	146152
#	165632
#	192196
#
# Disc length: 2753 seconds
#
# Revision: 1
# Processed by: cddbd v1.4PL0 Copyright (c) Steve Scherf et al.
# Submitted via: audiograbber 1.82.01
#
DISCID=8c0abf0a
DTITLE=Alaa Zalzali - Ya Hanoun
DYEAR=1900
DGENRE=
TTITLE0=Awal Hob
TTITLE1=Bel Zaf
TTITLE2=El Chakel El Helo
TTITLE3=Malaket El Rouh
TTITLE4=La Wallah
TTITLE5=Ya Hanoun
TTITLE6=Walla Bahebbak
TTITLE7=Law Add Kalamak
TTITLE8=Wala Naseytak
TTITLE9=Ya 3omri
EXTD=
EXTT0=
EXTT1=
EXTT2=
EXTT3=
EXTT4=
EXTT5=
EXTT6=
EXTT7=
EXTT8=
EXTT9=
PLAYORDER=
